<?xml version="1.0" standalone="no"?>
<!DOCTYPE svg PUBLIC "-//W3C//DTD SVG 20010904//EN"
 "http://www.w3.org/TR/2001/REC-SVG-20010904/DTD/svg10.dtd">
<svg version="1.0" xmlns="http://www.w3.org/2000/svg"
 width="700.000000pt" height="700.000000pt" viewBox="0 0 700.000000 700.000000"
 preserveAspectRatio="xMidYMid meet">
<metadata>
Created by potrace 1.11, written by Peter Selinger 2001-2013
</metadata>
<g transform="translate(0.000000,700.000000) scale(0.100000,-0.100000)"
fill="#000000" stroke="none">
<path d="M1899 6495 c-2 -2 -20 -6 -39 -9 -19 -3 -60 -14 -90 -24 -239 -83
-412 -268 -482 -519 -30 -109 -30 -277 0 -386 72 -258 253 -446 507 -527 98
-31 270 -35 375 -9 288 73 502 304 554 595 12 68 13 209 2 267 -43 229 -195
436 -395 537 -104 52 -186 72 -312 76 -64 1 -118 1 -120 -1z"/>
<path d="M4878 6490 c-343 -59 -606 -366 -611 -713 -2 -150 18 -248 75 -362
92 -182 249 -318 443 -382 69 -22 99 -26 210 -27 110 -1 141 3 205 22 159 50
277 132 383 264 20 25 37 49 37 52 0 4 11 23 24 44 12 20 35 71 49 112 68 202
56 401 -36 585 -104 209 -289 354 -511 399 -71 15 -200 18 -268 6z"/>
<path d="M0 4250 l0 -250 750 0 750 0 0 -750 0 -750 -500 -1000 -500 -1000
250 0 250 0 497 995 c274 547 500 995 503 995 3 0 229 -448 503 -995 l497
-995 500 0 500 0 497 995 c274 547 500 995 503 995 3 0 229 -448 503 -995
l497 -995 250 0 250 0 -500 1000 -500 1000 0 750 0 750 750 0 750 0 0 250 0
250 -3500 0 -3500 0 0 -250z m4500 -1000 l0 -750 -497 -995 c-274 -547 -500
-995 -503 -995 -3 0 -229 448 -503 995 l-497 995 0 750 0 750 1000 0 1000 0 0
-750z"/>
</g>
</svg>
